HIERARCHY
ROOT hip
{
	OFFSET 0.000000 0.000000 0.000000
	CHANNELS 6 Xposition Yposition Zposition Xrotation Zrotation Yrotation 
	JOINT abdomen
	{
		OFFSET 0.000000 3.422050 0.000000
		CHANNELS 3 Xrotation Zrotation Yrotation 
		JOINT chest
		{
			OFFSET 0.000000 8.486693 -0.684411
			CHANNELS 3 Xrotation Zrotation Yrotation 
			JOINT neck
			{
				OFFSET 0.000000 10.266162 -0.273764
				CHANNELS 3 Xrotation Zrotation Yrotation 
				JOINT head
				{
					OFFSET 0.000000 3.148285 0.000000
					CHANNELS 3 Xrotation Zrotation Yrotation 
					End Site
					{
						OFFSET 0.000000 3.148289 0.000000
					}
				}
			}
			JOINT lCollar
			{
				OFFSET 3.422053 6.707223 -0.821293
				CHANNELS 3 Yrotation Zrotation Xrotation 
				JOINT lShldr
				{
					OFFSET 3.285171 0.000000 0.000000
					CHANNELS 3 Zrotation Yrotation Xrotation 
					JOINT lForeArm
					{
						OFFSET 10.129278 0.000000 0.000000
						CHANNELS 3 Yrotation Zrotation Xrotation 
						JOINT lHand
						{
							OFFSET 8.486692 0.000000 0.000000
							CHANNELS 3 Zrotation Yrotation Xrotation 
							End Site
							{
								OFFSET 4.106464 0.000000 0.000000
							}
						}
					}
				}
			}
			JOINT rCollar
			{
				OFFSET -3.558935 6.707223 -0.821293
				CHANNELS 3 Yrotation Zrotation Xrotation 
				JOINT rShldr
				{
					OFFSET -3.148289 0.000000 0.000000
					CHANNELS 3 Zrotation Yrotation Xrotation 
					JOINT rForeArm
					{
						OFFSET -10.266159 0.000000 0.000000
						CHANNELS 3 Yrotation Zrotation Xrotation 
						JOINT rHand
						{
							OFFSET -8.349810 0.000000 0.000000
							CHANNELS 3 Zrotation Yrotation Xrotation 
							End Site
							{
								OFFSET -4.106464 0.000000 0.000000
							}
						}
					}
				}
			}
		}
	}
	JOINT lThigh
	{
		OFFSET 5.338403 -1.642589 1.368821
		CHANNELS 3 Xrotation Zrotation Yrotation 
		JOINT lShin
		{
			OFFSET -2.053232 -20.121670 0.000000
			CHANNELS 3 Xrotation Zrotation Yrotation 
			JOINT lFoot
			{
				OFFSET 0.000000 -19.300380 -1.231939
				CHANNELS 3 Xrotation Yrotation Zrotation 
				End Site
				{
					OFFSET 0.000000 -2.463878 4.653993
				}
			}
		}
	}
	JOINT rThigh
	{
		OFFSET -5.338403 -1.642589 1.368821
		CHANNELS 3 Xrotation Zrotation Yrotation 
		JOINT rShin
		{
			OFFSET 2.053232 -20.121670 0.000000
			CHANNELS 3 Xrotation Zrotation Yrotation 
			JOINT rFoot
			{
				OFFSET 0.000000 -19.300380 -1.231939
				CHANNELS 3 Xrotation Yrotation Zrotation 
				End Site
				{
					OFFSET 0.000000 -2.463878 4.653993
				}
			}
		}
	}
}
MOTION
Frames: 9
Frame Time: 0.076905
0.000000 43.528500 0.000000 0.000000 0.000000 0.000000 0.000000 0.000000 0.000000 0.000000 0.000000 0.000000 0.000000 0.000000 0.000000 0.000000 0.000000 0.000000 0.000000 0.000000 0.000000 0.000000 0.000000 0.000000 0.000000 0.000000 0.000000 0.000000 0.000000 0.000000 0.000000 0.000000 0.000000 0.000000 0.000000 0.000000 0.000000 0.000000 0.000000 0.000000 0.000000 0.000000 0.000000 0.000000 0.000000 0.000000 0.000000 0.000000 0.000000 0.000000 0.000000 0.000000 0.000000 0.000000 0.000000 0.000000 0.000000 0.000000 0.000000 0.000000 
-8.491570 5.402042 -4.622760 -90.001877 0.000000 0.000000 40.302574 -15.557282 -10.192176 23.974319 -0.145565 -19.582966 -16.278883 1.944960 -16.323593 -1.380149 9.393288 29.366436 -36.184128 -3.586583 1.612592 -42.746063 -16.395288 -77.639076 -79.303329 -57.406929 5.993457 49.325397 -18.552950 -1.884463 -35.875042 34.440666 -16.405184 29.144903 -14.993292 53.890091 80.515633 -44.487270 76.065788 -1.584713 10.722749 10.466349 -57.335766 11.580354 25.391407 73.479782 9.214549 -1.809289 26.364834 -12.721964 3.462890 -61.870312 -66.167648 -0.289954 103.189476 -7.096720 -3.018859 64.662025 32.971474 -63.102909 
-8.491570 5.402042 -4.622760 -90.001877 0.000000 0.000000 40.302567 -15.557282 -10.192175 24.363033 -0.145546 -19.583014 -15.723965 1.944962 -16.323660 -3.084762 9.393315 29.366497 -36.210262 -3.250992 1.344005 -42.746063 -16.395288 -77.639076 -79.303307 -57.406921 5.993457 49.325397 -18.552948 -1.884464 -35.875038 34.440662 -16.405184 29.144899 -14.993290 53.890087 80.515633 -44.487270 76.065788 -1.812795 10.602570 10.240052 -57.335766 11.580354 25.391405 73.479782 9.214549 -1.809289 26.364834 -12.721964 3.462890 -61.875168 -66.316826 -0.399214 103.189476 -7.096720 -3.018859 64.751610 32.889359 -63.304474 
-8.491570 5.402042 -4.622760 -90.001877 0.000000 0.000000 40.302574 -15.557282 -10.192176 24.751820 -0.145527 -19.583067 -15.168838 1.944965 -16.323725 -4.795531 9.393344 29.366560 -36.234806 -2.915206 1.075596 -42.746059 -16.395287 -77.639076 -79.303329 -57.406929 5.993457 49.325394 -18.552948 -1.884462 -35.875042 34.440666 -16.405180 29.144903 -14.993292 53.890091 80.515625 -44.487263 76.065773 -2.040330 10.481490 10.014301 -57.335766 11.580354 25.391407 73.479774 9.214549 -1.809289 26.364832 -12.721963 3.462890 -61.879391 -66.466064 -0.509101 103.189476 -7.096719 -3.018859 64.840767 32.806973 -63.505707 
-8.491570 5.402042 -4.622760 -90.001877 0.000000 0.000000 40.302574 -15.557284 -10.192177 25.140661 -0.145507 -19.583115 -14.613528 1.944968 -16.323793 -6.511725 9.393372 29.366610 -36.257782 -2.579243 0.807353 -42.746063 -16.395288 -77.639076 -79.303329 -57.406933 5.993462 49.325397 -18.552950 -1.884463 -35.875046 34.440670 -16.405186 29.144905 -14.993292 53.890095 80.515633 -44.487270 76.065788 -2.267314 10.359517 9.789105 -57.335766 11.580354 25.391407 73.479782 9.214550 -1.809289 26.364834 -12.721964 3.462890 -61.882889 -66.615273 -0.619619 103.189476 -7.096720 -3.018859 64.929504 32.724327 -63.706608 
-8.491570 5.402042 -4.622760 -90.001877 0.000000 0.000000 40.302574 -15.557282 -10.192176 25.529558 -0.145488 -19.583158 -14.058064 1.944972 -16.323862 -8.232593 9.393401 29.366665 -36.279182 -2.243120 0.539266 -42.746063 -16.395288 -77.639076 -79.303329 -57.406933 5.993462 49.325405 -18.552952 -1.884465 -35.875042 34.440666 -16.405182 29.144903 -14.993292 53.890091 80.515640 -44.487278 76.065796 -2.493741 10.236657 9.564470 -57.335766 11.580354 25.391407 73.479782 9.214549 -1.809289 26.364834 -12.721964 3.462890 -61.885666 -66.764488 -0.730794 103.189476 -7.096720 -3.018859 65.017830 32.641418 -63.907185 
-8.491570 5.402042 -4.622760 -90.001877 0.000000 0.000000 40.302574 -15.557282 -10.192176 25.918505 -0.145468 -19.583210 -13.502464 1.944976 -16.323927 -9.957378 9.393433 29.366716 -36.299007 -1.906853 0.271324 -42.746063 -16.395288 -77.639076 -79.303329 -57.406929 5.993457 49.325397 -18.552950 -1.884463 -35.875042 34.440666 -16.405184 29.144903 -14.993292 53.890091 80.515633 -44.487270 76.065788 -2.719606 10.112919 9.340399 -57.335766 11.580354 25.391407 73.479782 9.214549 -1.809289 26.364834 -12.721964 3.462890 -61.887749 -66.913734 -0.842632 103.189476 -7.096720 -3.018859 65.105728 32.558250 -64.107437 
-8.491570 5.402042 -4.622760 -90.001877 0.000000 0.000000 40.302574 -15.557282 -10.192176 26.307480 -0.145447 -19.583256 -12.946765 1.944982 -16.323997 -11.685312 9.393468 29.366772 -36.317257 -1.570459 0.003516 -42.746063 -16.395288 -77.639076 -79.303329 -57.406929 5.993457 49.325397 -18.552950 -1.884463 -35.875042 34.440662 -16.405182 29.144899 -14.993290 53.890091 80.515633 -44.487270 76.065788 -2.944905 9.988305 9.116899 -57.335766 11.580354 25.391407 73.479782 9.214549 -1.809289 26.364834 -12.721964 3.462890 -61.889076 -67.062958 -0.955150 103.189476 -7.096720 -3.018859 65.193192 32.474812 -64.307335 
-8.491570 5.402042 -4.622760 -90.001877 0.000000 0.000000 40.302570 -15.557281 -10.192176 26.696491 -0.145427 -19.583305 -12.390983 1.944988 -16.324064 -13.415613 9.393504 29.366829 -36.333923 -1.233956 -0.264168 -42.746063 -16.395288 -77.639076 -79.303307 -57.406921 5.993464 49.325397 -18.552950 -1.884463 -35.875042 34.440666 -16.405180 29.144903 -14.993290 53.890087 80.515633 -44.487267 76.065781 -3.169633 9.862821 8.893970 -57.335758 11.580353 25.391405 73.479782 9.214549 -1.809289 26.364832 -12.721964 3.462890 -61.889675 -67.212204 -1.068348 103.189476 -7.096719 -3.018859 65.280235 32.391129 -64.506920 
